<svg id="SvgjsSvg1166" width="288" height="288" xmlns="http://www.w3.org/2000/svg" version="1.1" xmlns:xlink="http://www.w3.org/1999/xlink" xmlns:svgjs="http://svgjs.com/svgjs"><defs id="SvgjsDefs1167"></defs><g id="SvgjsG1168"><svg xmlns="http://www.w3.org/2000/svg" viewBox="0 0 47.5 47.5" width="288" height="288"><defs><clipPath id="a"><path d="M0 38h38V0H0v38Z"></path></clipPath></defs><g clip-path="url(#a)" transform="matrix(1.25 0 0 -1.25 0 47.5)"><path fill="#00554e" d="M37 5a4 4 0 0 0-4-4H5a4 4 0 0 0-4 4v28a4 4 0 0 0 4 4h28a4 4 0 0 0 4-4V5Z" class="color77b255 svgShape"></path><path fill="#ffffff" d="m22.53 18.994 8.238 8.238a2.498 2.498 0 0 1 0 3.535 2.498 2.498 0 0 1-3.535 0l-8.238-8.238-8.238 8.238a2.5 2.5 0 1 1-3.536-3.535l8.239-8.238-8.258-8.258a2.498 2.498 0 0 1 1.767-4.268c.64 0 1.28.244 1.768.733l8.258 8.258 8.238-8.238a2.493 2.493 0 0 1 1.768-.732 2.498 2.498 0 0 1 1.767 4.267l-8.238 8.238Z" class="colorfff svgShape"></path></g></svg></g></svg>