<svg id="SvgjsSvg1077" width="288" height="288" xmlns="http://www.w3.org/2000/svg" version="1.1" xmlns:xlink="http://www.w3.org/1999/xlink" xmlns:svgjs="http://svgjs.com/svgjs"><defs id="SvgjsDefs1078"></defs><g id="SvgjsG1079"><svg xmlns="http://www.w3.org/2000/svg" fill="none" viewBox="0 0 96 96" width="288" height="288"><path fill="#ffffff" stroke="#ffffff" stroke-linecap="round" stroke-width="5" d="M48 32C29.0053 32 13.5447 47.1312 13.0141 65.9975C12.9986 66.5496 13.4477 67 14 67L82 67C82.5523 67 83.0014 66.5496 82.9859 65.9975C82.4553 47.1312 66.9947 32 48 32Z" class="colorFFB800 svgShape colorStroke000 svgStroke"></path><path stroke="#ffffff" stroke-linecap="round" stroke-width="5" d="M87 74H9C7.34315 74 6 75.3431 6 77 6 78.6569 7.34315 80 9 80H87C88.6569 80 90 78.6569 90 77 90 75.3431 88.6569 74 87 74zM48 25L48 29M20 68L20 72M76 69L76 73" class="colorStroke000 svgStroke"></path><path stroke="#ffffff" stroke-width="5" d="M46 25L50 25C52.2091 25 54 23.2091 54 21C54 18.7909 52.2091 17 50 17L48.1538 17L46 17C43.7909 17 42 18.7909 42 21C42 23.2091 43.7909 25 46 25Z" class="colorStroke000 svgStroke"></path></svg></g></svg>