<svg xmlns="http://www.w3.org/2000/svg" enable-background="new 0 0 64 64" viewBox="0 0 64 64" id="church">
  <path fill="#FFFFFF" d="M35.8,21.2c0,1.9-1.6,3.5-3.5,3.5c-1.9,0-3.5-1.6-3.5-3.5s1.6-3.5,3.5-3.5C34.2,17.6,35.8,19.2,35.8,21.2z"></path>
  <path fill="#FFFFFF" d="M58.1,61.8h-1.7V38.1l1.8,1c0.2,0.1,0.3,0.1,0.5,0.1c0.4,0,0.7-0.2,0.9-0.6c0.3-0.5,0.1-1.2-0.4-1.5
		l-3.3-1.8L46.2,30V18.9l1.3,0.8c0.2,0.1,0.4,0.2,0.6,0.2c0.4,0,0.7-0.2,0.9-0.5c0.3-0.5,0.2-1.2-0.4-1.5L45.7,16L34.8,9.3
		c-0.5-0.3-0.9-0.5-1.4-0.6V4.4h1.5c0.6,0,1.1-0.5,1.1-1.1s-0.5-1.1-1.1-1.1h-1.5V1.1c0-0.6-0.5-1.1-1.1-1.1c-0.6,0-1.1,0.5-1.1,1.1
		v1.2h-1.5c-0.6,0-1.1,0.5-1.1,1.1s0.5,1.1,1.1,1.1h1.5v4.3h-0.1c-0.2,0-0.3,0.1-0.5,0.2c-0.2,0-0.3,0-0.5,0.1c-0.1,0-0.1,0-0.1,0.1
		c-0.1,0-0.1,0.1-0.2,0.1L18.9,16L16,17.8c-0.5,0.3-0.7,1-0.4,1.5s1,0.7,1.5,0.4l1.3-0.8v11.2l-9.6,5.3l-3.4,1.9
		c-0.5,0.3-0.7,0.9-0.4,1.5c0.2,0.4,0.6,0.6,0.9,0.6c0.2,0,0.4,0,0.5-0.1l1.8-1V62H6.5c-0.6,0-1.1,0.5-1.1,1.1s0.5,1.1,1.1,1.1h51.6
		c0.6,0,1.1-0.5,1.1-1.1C59.2,62.3,58.7,61.8,58.1,61.8z M32.3,15.5c3.1,0,5.7,2.6,5.7,5.7s-2.5,5.7-5.7,5.7c-3.1,0-5.7-2.6-5.7-5.7
		S29.2,15.5,32.3,15.5z M40.3,61.8h-2.2v-13c0-1.6-0.6-3.1-1.7-4.2c-1.1-1.1-2.6-1.7-4.2-1.7c-3.3,0-5.9,2.7-5.9,5.9v13.1h-2.2V48.8
		c0-4.4,3.6-8.1,8.1-8.1c2.1,0,4.2,0.8,5.7,2.4c1.5,1.5,2.3,3.5,2.3,5.7v13H40.3z"></path>
</svg>
