<svg id="SvgjsSvg1099" width="288" height="288" xmlns="http://www.w3.org/2000/svg" version="1.1" xmlns:xlink="http://www.w3.org/1999/xlink" xmlns:svgjs="http://svgjs.com/svgjs"><defs id="SvgjsDefs1100"></defs><g id="SvgjsG1101"><svg xmlns="http://www.w3.org/2000/svg" viewBox="0 0 64 64" width="288" height="288"><g data-name="Layer 7"><path fill="#ffffff" d="M60,29a30.44,30.44,0,0,1-3.08,10.7A3,3,0,0,0,55,39a3,3,0,0,0-1.44,5.63,21.94,21.94,0,0,1-2.34,2.27C49.3,48.49,46.32,51,42,51a13.23,13.23,0,0,1-8.68-3.53,2,2,0,0,0-2.64,0,14.23,14.23,0,0,1-5.74,3.15A3.18,3.18,0,0,0,25,50a3,3,0,0,0-6,0,2.78,2.78,0,0,0,.06.58,17,17,0,0,1-6.28-3.68A22.19,22.19,0,0,1,9,42.82a3,3,0,1,0-2.85-5.17A31.22,31.22,0,0,1,4,29a10.34,10.34,0,0,0,6,3c5.21.5,7.84-4,12-4a4.56,4.56,0,0,1,.72.06A3,3,0,0,0,22,30a3,3,0,0,0,3,3,3,3,0,0,0,2.79-1.92c.36.37.72.79,1.09,1.25a4,4,0,0,0,6.24,0C37.78,29,40.1,28,42,28c3,0,5.16,2.28,8.06,3.42A2.78,2.78,0,0,0,50,32a3,3,0,0,0,6,0,2,2,0,0,0,0-.43A11.53,11.53,0,0,0,60,29Z" class="colorc62e65 svgShape"></path><path fill="#484747" d="M11,40a3,3,0,0,1-2,2.82,24.63,24.63,0,0,1-2.85-5.17A3,3,0,0,1,8,37,3,3,0,0,1,11,40Z" class="colorffc0be svgShape"></path><path fill="#8e8c8d" d="M25 50a3.18 3.18 0 01-.06.62A10.72 10.72 0 0122 51a10.54 10.54 0 01-2.94-.42A2.78 2.78 0 0119 50a3 3 0 016 0zM22.72 28.06a8.78 8.78 0 015.07 3A3 3 0 0125 33a3 3 0 01-3-3A3 3 0 0122.72 28.06z" class="colorff82a9 svgShape"></path><path fill="#484747" d="M56.92,39.7a23.69,23.69,0,0,1-3.36,4.93A3,3,0,0,1,55,39,3,3,0,0,1,56.92,39.7Z" class="colorffc0be svgShape"></path><path fill="#8e8c8d" d="M56,32a3,3,0,0,1-6,0,2.78,2.78,0,0,1,.06-.58A8.49,8.49,0,0,0,54,32a8.12,8.12,0,0,0,2-.43A2,2,0,0,1,56,32Z" class="colorff82a9 svgShape"></path><path fill="#080808" d="M15 38c.14-.14 3.18-3 7-2a7.15 7.15 0 014 3c-.06.18-1.17 3.36-4 4S16 41.6 15 38zM49 38c-.14-.14-3.18-3-7-2a7.15 7.15 0 00-4 3c.06.18 1.17 3.36 4 4S48 41.6 49 38z" class="colorffebe7 svgShape"></path><path fill="#e4e5e8" d="M34.74 22a16.21 16.21 0 01-.49 4l-2 7.82h-.6L29.75 26A16.31 16.31 0 0132 13 16.3 16.3 0 0134.74 22zM43 17a16.32 16.32 0 01-4.58 11.32l-5.09 5.26a3.58 3.58 0 01-1 .22l2.21-7.73A16.29 16.29 0 0143 16C43 16.3 43 16.66 43 17zM51.05 24a16 16 0 01-4.17 5.29l-.33.26A8.84 8.84 0 0042 28c-1.9 0-4.22 1-6.88 4.33a3.94 3.94 0 01-1.6 1.2l5.15-5A16.3 16.3 0 0151.05 24z" class="color7f95d1 svgShape"></path><path fill="#e4e5e8" d="M31.66 33.81a3.58 3.58 0 01-1-.22l-5.09-5.26A16.3 16.3 0 0121 16a16 16 0 015.29 4.17 16.23 16.23 0 013.16 6zM30.48 33.53a3.94 3.94 0 01-1.6-1.2C26.22 29 23.9 28 22 28a8.84 8.84 0 00-4.55 1.55A16 16 0 0113 24c.35 0 .71 0 1.06 0a16.32 16.32 0 0111.32 4.58z" class="color7f95d1 svgShape"></path><path fill="#484747" d="M44,43a3,3,0,0,1-6,0,2.94,2.94,0,0,1,1-2.18A5.22,5.22,0,0,0,42,43,4.65,4.65,0,0,0,44,43Z" class="colorffc0be svgShape"></path></g></svg></g></svg>